<svg id="mermaid-74e093c0-12f2-417f-adbf-21a2891b81b6" width="100%" xmlns="http://www.w3.org/2000/svg" class="classDiagram" style="max-width: 1046.5390625px;" viewBox="0 0 1046.5390625 234" role="graphics-document document" aria-roledescription="class"><style>#mermaid-74e093c0-12f2-417f-adbf-21a2891b81b6{font-family:"trebuchet ms",verdana,arial,sans-serif;font-size:16px;fill:#ccc;}@keyframes edge-animation-frame{from{stroke-dashoffset:0;}}@keyframes dash{to{stroke-dashoffset:0;}}#mermaid-74e093c0-12f2-417f-adbf-21a2891b81b6 .edge-animation-slow{stroke-dasharray:9,5!important;stroke-dashoffset:900;animation:dash 50s linear infinite;stroke-linecap:round;}#mermaid-74e093c0-12f2-417f-adbf-21a2891b81b6 .edge-animation-fast{stroke-dasharray:9,5!important;stroke-dashoffset:900;animation:dash 20s linear infinite;stroke-linecap:round;}#mermaid-74e093c0-12f2-417f-adbf-21a2891b81b6 .error-icon{fill:#a44141;}#mermaid-74e093c0-12f2-417f-adbf-21a2891b81b6 .error-text{fill:#ddd;stroke:#ddd;}#mermaid-74e093c0-12f2-417f-adbf-21a2891b81b6 .edge-thickness-normal{stroke-width:1px;}#mermaid-74e093c0-12f2-417f-adbf-21a2891b81b6 .edge-thickness-thick{stroke-width:3.5px;}#mermaid-74e093c0-12f2-417f-adbf-21a2891b81b6 .edge-pattern-solid{stroke-dasharray:0;}#mermaid-74e093c0-12f2-417f-adbf-21a2891b81b6 .edge-thickness-invisible{stroke-width:0;fill:none;}#mermaid-74e093c0-12f2-417f-adbf-21a2891b81b6 .edge-pattern-dashed{stroke-dasharray:3;}#mermaid-74e093c0-12f2-417f-adbf-21a2891b81b6 .edge-pattern-dotted{stroke-dasharray:2;}#mermaid-74e093c0-12f2-417f-adbf-21a2891b81b6 .marker{fill:lightgrey;stroke:lightgrey;}#mermaid-74e093c0-12f2-417f-adbf-21a2891b81b6 .marker.cross{stroke:lightgrey;}#mermaid-74e093c0-12f2-417f-adbf-21a2891b81b6 svg{font-family:"trebuchet ms",verdana,arial,sans-serif;font-size:16px;}#mermaid-74e093c0-12f2-417f-adbf-21a2891b81b6 p{margin:0;}#mermaid-74e093c0-12f2-417f-adbf-21a2891b81b6 g.classGroup text{fill:#ccc;stroke:none;font-family:"trebuchet ms",verdana,arial,sans-serif;font-size:10px;}#mermaid-74e093c0-12f2-417f-adbf-21a2891b81b6 g.classGroup text .title{font-weight:bolder;}#mermaid-74e093c0-12f2-417f-adbf-21a2891b81b6 .cluster-label text{fill:#F9FFFE;}#mermaid-74e093c0-12f2-417f-adbf-21a2891b81b6 .cluster-label span{color:#F9FFFE;}#mermaid-74e093c0-12f2-417f-adbf-21a2891b81b6 .cluster-label span p{background-color:transparent;}#mermaid-74e093c0-12f2-417f-adbf-21a2891b81b6 .cluster rect{fill:hsl(180, 1.5873015873%, 28.3529411765%);stroke:rgba(255, 255, 255, 0.25);stroke-width:1px;}#mermaid-74e093c0-12f2-417f-adbf-21a2891b81b6 .cluster text{fill:#F9FFFE;}#mermaid-74e093c0-12f2-417f-adbf-21a2891b81b6 .cluster span{color:#F9FFFE;}#mermaid-74e093c0-12f2-417f-adbf-21a2891b81b6 .nodeLabel,#mermaid-74e093c0-12f2-417f-adbf-21a2891b81b6 .edgeLabel{color:#e0dfdf;}#mermaid-74e093c0-12f2-417f-adbf-21a2891b81b6 .noteLabel .nodeLabel,#mermaid-74e093c0-12f2-417f-adbf-21a2891b81b6 .noteLabel .edgeLabel{color:rgb(183.8476190475, 181.5523809523, 181.5523809523);}#mermaid-74e093c0-12f2-417f-adbf-21a2891b81b6 .edgeLabel .label rect{fill:#1f2020;}#mermaid-74e093c0-12f2-417f-adbf-21a2891b81b6 .label text{fill:#e0dfdf;}#mermaid-74e093c0-12f2-417f-adbf-21a2891b81b6 .labelBkg{background:#1f2020;}#mermaid-74e093c0-12f2-417f-adbf-21a2891b81b6 .edgeLabel .label span{background:#1f2020;}#mermaid-74e093c0-12f2-417f-adbf-21a2891b81b6 .classTitle{font-weight:bolder;}#mermaid-74e093c0-12f2-417f-adbf-21a2891b81b6 .node rect,#mermaid-74e093c0-12f2-417f-adbf-21a2891b81b6 .node circle,#mermaid-74e093c0-12f2-417f-adbf-21a2891b81b6 .node ellipse,#mermaid-74e093c0-12f2-417f-adbf-21a2891b81b6 .node polygon,#mermaid-74e093c0-12f2-417f-adbf-21a2891b81b6 .node path{fill:#1f2020;stroke:#ccc;stroke-width:1;}#mermaid-74e093c0-12f2-417f-adbf-21a2891b81b6 .divider{stroke:#ccc;stroke-width:1;}#mermaid-74e093c0-12f2-417f-adbf-21a2891b81b6 g.clickable{cursor:pointer;}#mermaid-74e093c0-12f2-417f-adbf-21a2891b81b6 g.classGroup rect{fill:#1f2020;stroke:#ccc;}#mermaid-74e093c0-12f2-417f-adbf-21a2891b81b6 g.classGroup line{stroke:#ccc;stroke-width:1;}#mermaid-74e093c0-12f2-417f-adbf-21a2891b81b6 .classLabel .box{stroke:none;stroke-width:0;fill:#1f2020;opacity:0.5;}#mermaid-74e093c0-12f2-417f-adbf-21a2891b81b6 .classLabel .label{fill:#ccc;font-size:10px;}#mermaid-74e093c0-12f2-417f-adbf-21a2891b81b6 .relation{stroke:lightgrey;stroke-width:1;fill:none;}#mermaid-74e093c0-12f2-417f-adbf-21a2891b81b6 .dashed-line{stroke-dasharray:3;}#mermaid-74e093c0-12f2-417f-adbf-21a2891b81b6 .dotted-line{stroke-dasharray:1 2;}#mermaid-74e093c0-12f2-417f-adbf-21a2891b81b6 [id$="-compositionStart"],#mermaid-74e093c0-12f2-417f-adbf-21a2891b81b6 .composition{fill:lightgrey!important;stroke:lightgrey!important;stroke-width:1;}#mermaid-74e093c0-12f2-417f-adbf-21a2891b81b6 [id$="-compositionEnd"],#mermaid-74e093c0-12f2-417f-adbf-21a2891b81b6 .composition{fill:lightgrey!important;stroke:lightgrey!important;stroke-width:1;}#mermaid-74e093c0-12f2-417f-adbf-21a2891b81b6 [id$="-dependencyStart"],#mermaid-74e093c0-12f2-417f-adbf-21a2891b81b6 .dependency{fill:lightgrey!important;stroke:lightgrey!important;stroke-width:1;}#mermaid-74e093c0-12f2-417f-adbf-21a2891b81b6 [id$="-dependencyEnd"],#mermaid-74e093c0-12f2-417f-adbf-21a2891b81b6 .dependency{fill:lightgrey!important;stroke:lightgrey!important;stroke-width:1;}#mermaid-74e093c0-12f2-417f-adbf-21a2891b81b6 [id$="-extensionStart"],#mermaid-74e093c0-12f2-417f-adbf-21a2891b81b6 .extension{fill:transparent!important;stroke:lightgrey!important;stroke-width:1;}#mermaid-74e093c0-12f2-417f-adbf-21a2891b81b6 [id$="-extensionEnd"],#mermaid-74e093c0-12f2-417f-adbf-21a2891b81b6 .extension{fill:transparent!important;stroke:lightgrey!important;stroke-width:1;}#mermaid-74e093c0-12f2-417f-adbf-21a2891b81b6 [id$="-aggregationStart"],#mermaid-74e093c0-12f2-417f-adbf-21a2891b81b6 .aggregation{fill:transparent!important;stroke:lightgrey!important;stroke-width:1;}#mermaid-74e093c0-12f2-417f-adbf-21a2891b81b6 [id$="-aggregationEnd"],#mermaid-74e093c0-12f2-417f-adbf-21a2891b81b6 .aggregation{fill:transparent!important;stroke:lightgrey!important;stroke-width:1;}#mermaid-74e093c0-12f2-417f-adbf-21a2891b81b6 [id$="-lollipopStart"],#mermaid-74e093c0-12f2-417f-adbf-21a2891b81b6 .lollipop{fill:#1f2020!important;stroke:lightgrey!important;stroke-width:1;}#mermaid-74e093c0-12f2-417f-adbf-21a2891b81b6 [id$="-lollipopEnd"],#mermaid-74e093c0-12f2-417f-adbf-21a2891b81b6 .lollipop{fill:#1f2020!important;stroke:lightgrey!important;stroke-width:1;}#mermaid-74e093c0-12f2-417f-adbf-21a2891b81b6 .edgeTerminals{font-size:11px;line-height:initial;}#mermaid-74e093c0-12f2-417f-adbf-21a2891b81b6 .classTitleText{text-anchor:middle;font-size:18px;fill:#ccc;}#mermaid-74e093c0-12f2-417f-adbf-21a2891b81b6 .edgeLabel[data-look="neo"]{background-color:hsl(0, 0%, 34.4117647059%);text-align:center;}#mermaid-74e093c0-12f2-417f-adbf-21a2891b81b6 .edgeLabel[data-look="neo"] p{background-color:hsl(0, 0%, 34.4117647059%);}#mermaid-74e093c0-12f2-417f-adbf-21a2891b81b6 .edgeLabel[data-look="neo"] rect{opacity:0.5;background-color:hsl(0, 0%, 34.4117647059%);fill:hsl(0, 0%, 34.4117647059%);}#mermaid-74e093c0-12f2-417f-adbf-21a2891b81b6 .label-icon{display:inline-block;height:1em;overflow:visible;vertical-align:-0.125em;}#mermaid-74e093c0-12f2-417f-adbf-21a2891b81b6 .node .label-icon path{fill:currentColor;stroke:revert;stroke-width:revert;}#mermaid-74e093c0-12f2-417f-adbf-21a2891b81b6 .node .neo-node{stroke:#ccc;}#mermaid-74e093c0-12f2-417f-adbf-21a2891b81b6 [data-look="neo"].node rect,#mermaid-74e093c0-12f2-417f-adbf-21a2891b81b6 [data-look="neo"].cluster rect,#mermaid-74e093c0-12f2-417f-adbf-21a2891b81b6 [data-look="neo"].node polygon{stroke:url(#mermaid-74e093c0-12f2-417f-adbf-21a2891b81b6-gradient);filter:drop-shadow( 1px 2px 2px rgba(185,185,185,1));}#mermaid-74e093c0-12f2-417f-adbf-21a2891b81b6 [data-look="neo"].node path{stroke:url(#mermaid-74e093c0-12f2-417f-adbf-21a2891b81b6-gradient);stroke-width:1px;}#mermaid-74e093c0-12f2-417f-adbf-21a2891b81b6 [data-look="neo"].node .outer-path{filter:drop-shadow( 1px 2px 2px rgba(185,185,185,1));}#mermaid-74e093c0-12f2-417f-adbf-21a2891b81b6 [data-look="neo"].node .neo-line path{stroke:#ccc;filter:none;}#mermaid-74e093c0-12f2-417f-adbf-21a2891b81b6 [data-look="neo"].node circle{stroke:url(#mermaid-74e093c0-12f2-417f-adbf-21a2891b81b6-gradient);filter:drop-shadow( 1px 2px 2px rgba(185,185,185,1));}#mermaid-74e093c0-12f2-417f-adbf-21a2891b81b6 [data-look="neo"].node circle .state-start{fill:#000000;}#mermaid-74e093c0-12f2-417f-adbf-21a2891b81b6 [data-look="neo"].icon-shape .icon{fill:url(#mermaid-74e093c0-12f2-417f-adbf-21a2891b81b6-gradient);filter:drop-shadow( 1px 2px 2px rgba(185,185,185,1));}#mermaid-74e093c0-12f2-417f-adbf-21a2891b81b6 [data-look="neo"].icon-shape .icon-neo path{stroke:url(#mermaid-74e093c0-12f2-417f-adbf-21a2891b81b6-gradient);filter:drop-shadow( 1px 2px 2px rgba(185,185,185,1));}#mermaid-74e093c0-12f2-417f-adbf-21a2891b81b6 :root{--mermaid-font-family:"trebuchet ms",verdana,arial,sans-serif;}</style><g><defs><marker id="mermaid-74e093c0-12f2-417f-adbf-21a2891b81b6_class-aggregationStart" class="marker aggregation class" refX="18" refY="7" markerWidth="190" markerHeight="240" orient="auto"><path d="M 18,7 L9,13 L1,7 L9,1 Z"></path></marker></defs><defs><marker id="mermaid-74e093c0-12f2-417f-adbf-21a2891b81b6_class-aggregationEnd" class="marker aggregation class" refX="1" refY="7" markerWidth="20" markerHeight="28" orient="auto"><path d="M 18,7 L9,13 L1,7 L9,1 Z"></path></marker></defs><defs><marker id="mermaid-74e093c0-12f2-417f-adbf-21a2891b81b6_class-aggregationStart-margin" class="marker aggregation class" refX="15" refY="7" markerWidth="190" markerHeight="240" orient="auto" markerUnits="userSpaceOnUse"><path d="M 18,7 L9,13 L1,7 L9,1 Z" style="stroke-width: 2;"></path></marker></defs><defs><marker id="mermaid-74e093c0-12f2-417f-adbf-21a2891b81b6_class-aggregationEnd-margin" class="marker aggregation class" refX="1" refY="7" markerWidth="20" markerHeight="28" orient="auto" markerUnits="userSpaceOnUse"><path d="M 18,7 L9,13 L1,7 L9,1 Z" style="stroke-width: 2;"></path></marker></defs><defs><marker id="mermaid-74e093c0-12f2-417f-adbf-21a2891b81b6_class-extensionStart" class="marker extension class" refX="18" refY="7" markerWidth="190" markerHeight="240" orient="auto" markerUnits="userSpaceOnUse"><path d="M 1,7 L18,13 V 1 Z"></path></marker></defs><defs><marker id="mermaid-74e093c0-12f2-417f-adbf-21a2891b81b6_class-extensionEnd" class="marker extension class" refX="1" refY="7" markerWidth="20" markerHeight="28" orient="auto"><path d="M 1,1 V 13 L18,7 Z"></path></marker></defs><marker id="mermaid-74e093c0-12f2-417f-adbf-21a2891b81b6_class-extensionStart-margin" class="marker extension class" refX="18" refY="7" markerWidth="20" markerHeight="28" orient="auto" markerUnits="userSpaceOnUse" viewBox="0 0 20 14"><polygon points="10,7 18,13 18,1" style="stroke-width: 2; stroke-dasharray: 0;"></polygon></marker><defs><marker id="mermaid-74e093c0-12f2-417f-adbf-21a2891b81b6_class-extensionEnd-margin" class="marker extension class" refX="9" refY="7" markerWidth="20" markerHeight="28" orient="auto" markerUnits="userSpaceOnUse" viewBox="0 0 20 14"><polygon points="10,1 10,13 18,7" style="stroke-width: 2; stroke-dasharray: 0;"></polygon></marker></defs><defs><marker id="mermaid-74e093c0-12f2-417f-adbf-21a2891b81b6_class-compositionStart" class="marker composition class" refX="18" refY="7" markerWidth="190" markerHeight="240" orient="auto"><path d="M 18,7 L9,13 L1,7 L9,1 Z"></path></marker></defs><defs><marker id="mermaid-74e093c0-12f2-417f-adbf-21a2891b81b6_class-compositionEnd" class="marker composition class" refX="1" refY="7" markerWidth="20" markerHeight="28" orient="auto"><path d="M 18,7 L9,13 L1,7 L9,1 Z"></path></marker></defs><defs><marker id="mermaid-74e093c0-12f2-417f-adbf-21a2891b81b6_class-compositionStart-margin" class="marker composition class" refX="15" refY="7" markerWidth="190" markerHeight="240" orient="auto" markerUnits="userSpaceOnUse"><path viewBox="0 0 15 15" d="M 18,7 L9,13 L1,7 L9,1 Z" style="stroke-width: 0;"></path></marker></defs><defs><marker id="mermaid-74e093c0-12f2-417f-adbf-21a2891b81b6_class-compositionEnd-margin" class="marker composition class" refX="3.5" refY="7" markerWidth="20" markerHeight="28" orient="auto" markerUnits="userSpaceOnUse"><path d="M 18,7 L9,13 L1,7 L9,1 Z" style="stroke-width: 0;"></path></marker></defs><defs><marker id="mermaid-74e093c0-12f2-417f-adbf-21a2891b81b6_class-dependencyStart" class="marker dependency class" refX="6" refY="7" markerWidth="190" markerHeight="240" orient="auto"><path d="M 5,7 L9,13 L1,7 L9,1 Z"></path></marker></defs><defs><marker id="mermaid-74e093c0-12f2-417f-adbf-21a2891b81b6_class-dependencyEnd" class="marker dependency class" refX="13" refY="7" markerWidth="20" markerHeight="28" orient="auto"><path d="M 18,7 L9,13 L14,7 L9,1 Z"></path></marker></defs><defs><marker id="mermaid-74e093c0-12f2-417f-adbf-21a2891b81b6_class-dependencyStart-margin" class="marker dependency class" refX="4" refY="7" markerWidth="190" markerHeight="240" orient="auto" markerUnits="userSpaceOnUse"><path d="M 5,7 L9,13 L1,7 L9,1 Z" style="stroke-width: 0;"></path></marker></defs><defs><marker id="mermaid-74e093c0-12f2-417f-adbf-21a2891b81b6_class-dependencyEnd-margin" class="marker dependency class" refX="16" refY="7" markerWidth="20" markerHeight="28" orient="auto" markerUnits="userSpaceOnUse"><path d="M 18,7 L9,13 L14,7 L9,1 Z" style="stroke-width: 0;"></path></marker></defs><defs><marker id="mermaid-74e093c0-12f2-417f-adbf-21a2891b81b6_class-lollipopStart" class="marker lollipop class" refX="13" refY="7" markerWidth="190" markerHeight="240" orient="auto"><circle fill="transparent" cx="7" cy="7" r="6"></circle></marker></defs><defs><marker id="mermaid-74e093c0-12f2-417f-adbf-21a2891b81b6_class-lollipopEnd" class="marker lollipop class" refX="1" refY="7" markerWidth="190" markerHeight="240" orient="auto"><circle fill="transparent" cx="7" cy="7" r="6"></circle></marker></defs><defs><marker id="mermaid-74e093c0-12f2-417f-adbf-21a2891b81b6_class-lollipopStart-margin" class="marker lollipop class" refX="13" refY="7" markerWidth="190" markerHeight="240" orient="auto" markerUnits="userSpaceOnUse"><circle fill="transparent" cx="7" cy="7" r="6" stroke-width="2"></circle></marker></defs><defs><marker id="mermaid-74e093c0-12f2-417f-adbf-21a2891b81b6_class-lollipopEnd-margin" class="marker lollipop class" refX="1" refY="7" markerWidth="190" markerHeight="240" orient="auto" markerUnits="userSpaceOnUse"><circle fill="transparent" cx="7" cy="7" r="6" stroke-width="2"></circle></marker></defs><g class="root"><g class="clusters"></g><g class="edgePaths"><path d="M394.782,62.948L341.725,71.956C288.667,80.965,182.552,98.983,129.495,112.158C76.438,125.333,76.438,133.667,76.438,137.833L76.438,142" id="mermaid-74e093c0-12f2-417f-adbf-21a2891b81b6-id_DomainError_ValidationError_1" class=" edge-thickness-normal edge-pattern-solid relation" style=";;;" data-edge="true" data-et="edge" data-id="id_DomainError_ValidationError_1" data-points="W3sieCI6NDExLjc4OTA2MjUsInkiOjYwLjA2MDE0NzY5NjQ1MDE0fSx7IngiOjc2LjQzNzUsInkiOjExN30seyJ4Ijo3Ni40Mzc1LCJ5IjoxNDJ9XQ==" data-look="classic" marker-start="url(#mermaid-74e093c0-12f2-417f-adbf-21a2891b81b6_class-extensionStart)"></path><path d="M395.46,75.74L375.269,82.617C355.078,89.494,314.695,103.247,294.504,114.29C274.313,125.333,274.313,133.667,274.313,137.833L274.313,142" id="mermaid-74e093c0-12f2-417f-adbf-21a2891b81b6-id_DomainError_BusinessRuleError_2" class=" edge-thickness-normal edge-pattern-solid relation" style=";;;" data-edge="true" data-et="edge" data-id="id_DomainError_BusinessRuleError_2" data-points="W3sieCI6NDExLjc4OTA2MjUsInkiOjcwLjE3OTAyMzg2NzIwMTQ3fSx7IngiOjI3NC4zMTI1LCJ5IjoxMTd9LHsieCI6Mjc0LjMxMjUsInkiOjE0Mn1d" data-look="classic" marker-start="url(#mermaid-74e093c0-12f2-417f-adbf-21a2891b81b6_class-extensionStart)"></path><path d="M471.039,109.25L471.039,110.542C471.039,111.833,471.039,114.417,471.039,119.875C471.039,125.333,471.039,133.667,471.039,137.833L471.039,142" id="mermaid-74e093c0-12f2-417f-adbf-21a2891b81b6-id_DomainError_NotFoundError_3" class=" edge-thickness-normal edge-pattern-solid relation" style=";;;" data-edge="true" data-et="edge" data-id="id_DomainError_NotFoundError_3" data-points="W3sieCI6NDcxLjAzOTA2MjUsInkiOjkyfSx7IngiOjQ3MS4wMzkwNjI1LCJ5IjoxMTd9LHsieCI6NDcxLjAzOTA2MjUsInkiOjE0Mn1d" data-look="classic" marker-start="url(#mermaid-74e093c0-12f2-417f-adbf-21a2891b81b6_class-extensionStart)"></path><path d="M546.43,78.42L563.487,84.85C580.545,91.28,614.659,104.14,631.716,114.737C648.773,125.333,648.773,133.667,648.773,137.833L648.773,142" id="mermaid-74e093c0-12f2-417f-adbf-21a2891b81b6-id_DomainError_ConflictError_4" class=" edge-thickness-normal edge-pattern-solid relation" style=";;;" data-edge="true" data-et="edge" data-id="id_DomainError_ConflictError_4" data-points="W3sieCI6NTMwLjI4OTA2MjUsInkiOjcyLjMzNTI5NjcwMzI5Njd9LHsieCI6NjQ4Ljc3MzQzNzUsInkiOjExN30seyJ4Ijo2NDguNzczNDM3NSwieSI6MTQyfV0=" data-look="classic" marker-start="url(#mermaid-74e093c0-12f2-417f-adbf-21a2891b81b6_class-extensionStart)"></path><path d="M547.208,65.134L590.717,73.778C634.225,82.422,721.241,99.711,764.75,112.522C808.258,125.333,808.258,133.667,808.258,137.833L808.258,142" id="mermaid-74e093c0-12f2-417f-adbf-21a2891b81b6-id_DomainError_AuthError_5" class=" edge-thickness-normal edge-pattern-solid relation" style=";;;" data-edge="true" data-et="edge" data-id="id_DomainError_AuthError_5" data-points="W3sieCI6NTMwLjI4OTA2MjUsInkiOjYxLjc3MjAzMjI0OTA5NjQ3fSx7IngiOjgwOC4yNTc4MTI1LCJ5IjoxMTd9LHsieCI6ODA4LjI1NzgxMjUsInkiOjE0Mn1d" data-look="classic" marker-start="url(#mermaid-74e093c0-12f2-417f-adbf-21a2891b81b6_class-extensionStart)"></path><path d="M955.102,109.25L955.102,110.542C955.102,111.833,955.102,114.417,955.102,119.875C955.102,125.333,955.102,133.667,955.102,137.833L955.102,142" id="mermaid-74e093c0-12f2-417f-adbf-21a2891b81b6-id_InfrastructureError_HttpError_6" class=" edge-thickness-normal edge-pattern-solid relation" style=";;;" data-edge="true" data-et="edge" data-id="id_InfrastructureError_HttpError_6" data-points="W3sieCI6OTU1LjEwMTU2MjUsInkiOjkyfSx7IngiOjk1NS4xMDE1NjI1LCJ5IjoxMTd9LHsieCI6OTU1LjEwMTU2MjUsInkiOjE0Mn1d" data-look="classic" marker-start="url(#mermaid-74e093c0-12f2-417f-adbf-21a2891b81b6_class-extensionStart)"></path></g><g class="edgeLabels"><g class="edgeLabel"><g class="label" data-id="id_DomainError_ValidationError_1" transform="translate(0, 0)"><foreignObject width="0" height="0"><div xmlns="http://www.w3.org/1999/xhtml" class="labelBkg" style="display: table-cell; white-space: nowrap; line-height: 1.5; max-width: 200px; text-align: center;"><span class="edgeLabel "></span></div></foreignObject></g></g><g class="edgeLabel"><g class="label" data-id="id_DomainError_BusinessRuleError_2" transform="translate(0, 0)"><foreignObject width="0" height="0"><div xmlns="http://www.w3.org/1999/xhtml" class="labelBkg" style="display: table-cell; white-space: nowrap; line-height: 1.5; max-width: 200px; text-align: center;"><span class="edgeLabel "></span></div></foreignObject></g></g><g class="edgeLabel"><g class="label" data-id="id_DomainError_NotFoundError_3" transform="translate(0, 0)"><foreignObject width="0" height="0"><div xmlns="http://www.w3.org/1999/xhtml" class="labelBkg" style="display: table-cell; white-space: nowrap; line-height: 1.5; max-width: 200px; text-align: center;"><span class="edgeLabel "></span></div></foreignObject></g></g><g class="edgeLabel"><g class="label" data-id="id_DomainError_ConflictError_4" transform="translate(0, 0)"><foreignObject width="0" height="0"><div xmlns="http://www.w3.org/1999/xhtml" class="labelBkg" style="display: table-cell; white-space: nowrap; line-height: 1.5; max-width: 200px; text-align: center;"><span class="edgeLabel "></span></div></foreignObject></g></g><g class="edgeLabel"><g class="label" data-id="id_DomainError_AuthError_5" transform="translate(0, 0)"><foreignObject width="0" height="0"><div xmlns="http://www.w3.org/1999/xhtml" class="labelBkg" style="display: table-cell; white-space: nowrap; line-height: 1.5; max-width: 200px; text-align: center;"><span class="edgeLabel "></span></div></foreignObject></g></g><g class="edgeLabel"><g class="label" data-id="id_InfrastructureError_HttpError_6" transform="translate(0, 0)"><foreignObject width="0" height="0"><div xmlns="http://www.w3.org/1999/xhtml" class="labelBkg" style="display: table-cell; white-space: nowrap; line-height: 1.5; max-width: 200px; text-align: center;"><span class="edgeLabel "></span></div></foreignObject></g></g></g><g class="nodes"><g class="node default " id="mermaid-74e093c0-12f2-417f-adbf-21a2891b81b6-classId-DomainError-12" data-look="classic" transform="translate(471.0390625, 50)"><g class="basic label-container outer-path"><path d="M-59.25 -42 L59.25 -42 L59.25 42 L-59.25 42" stroke="none" stroke-width="0" fill="#1f2020" style=""></path><path d="M-59.25 -42 C-27.818358114072197 -42, 3.613283771855606 -42, 59.25 -42 M-59.25 -42 C-16.76599957551349 -42, 25.71800084897302 -42, 59.25 -42 M59.25 -42 C59.25 -9.544756869721233, 59.25 22.910486260557533, 59.25 42 M59.25 -42 C59.25 -20.246595754640822, 59.25 1.506808490718356, 59.25 42 M59.25 42 C14.961565933909746 42, -29.326868132180508 42, -59.25 42 M59.25 42 C32.55822275314474 42, 5.86644550628948 42, -59.25 42 M-59.25 42 C-59.25 14.989888449105084, -59.25 -12.020223101789831, -59.25 -42 M-59.25 42 C-59.25 12.027591365576502, -59.25 -17.944817268846997, -59.25 -42" stroke="#ccc" stroke-width="1.3" fill="none" stroke-dasharray="0 0" style=""></path></g><g class="annotation-group text" transform="translate(0, -18)"></g><g class="label-group text" transform="translate(-47.25, -18)"><g class="label" style="font-weight: bolder" transform="translate(0,-12)"><foreignObject width="94.5" height="24"><div xmlns="http://www.w3.org/1999/xhtml" style="display: table-cell; white-space: nowrap; line-height: 1.5; max-width: 140px; text-align: center;"><span class="nodeLabel markdown-node-label" style=""><p>DomainError</p></span></div></foreignObject></g></g><g class="members-group text" transform="translate(-47.25, 30)"></g><g class="methods-group text" transform="translate(-47.25, 60)"></g><g class="divider" style=""><path d="M-59.25 6 C-23.424202516166787 6.000302327404927, 12.401594967666426 6.0006046548098535, 59.25 6.001 M-59.25 6 C-20.138703457058618 6.000330053135383, 18.972593085882764 6.000660106270767, 59.25 6.001" stroke="#ccc" stroke-width="1.3" fill="none" stroke-dasharray="0 0" style=""></path></g><g class="divider" style=""><path d="M-59.25 24 C-22.657297244507916 24.000308799179372, 13.935405510984168 24.000617598358744, 59.25 24.001 M-59.25 24 C-29.653601106203 24.000249758640454, -0.05720221240599699 24.000499517280907, 59.25 24.001" stroke="#ccc" stroke-width="1.3" fill="none" stroke-dasharray="0 0" style=""></path></g></g><g class="node default " id="mermaid-74e093c0-12f2-417f-adbf-21a2891b81b6-classId-ValidationError-13" data-look="classic" transform="translate(76.4375, 184)"><g class="basic label-container outer-path"><path d="M-68.4375 -42 L68.4375 -42 L68.4375 42 L-68.4375 42" stroke="none" stroke-width="0" fill="#1f2020" style=""></path><path d="M-68.4375 -42 C-40.79272236802423 -42, -13.147944736048451 -42, 68.4375 -42 M-68.4375 -42 C-33.04604210427813 -42, 2.3454157914437417 -42, 68.4375 -42 M68.4375 -42 C68.4375 -11.8980533654101, 68.4375 18.2038932691798, 68.4375 42 M68.4375 -42 C68.4375 -15.441262546940944, 68.4375 11.117474906118112, 68.4375 42 M68.4375 42 C33.072665775689075 42, -2.292168448621851 42, -68.4375 42 M68.4375 42 C27.885723352486515 42, -12.66605329502697 42, -68.4375 42 M-68.4375 42 C-68.4375 18.370232398804223, -68.4375 -5.259535202391554, -68.4375 -42 M-68.4375 42 C-68.4375 24.008462547940546, -68.4375 6.016925095881092, -68.4375 -42" stroke="#ccc" stroke-width="1.3" fill="none" stroke-dasharray="0 0" style=""></path></g><g class="annotation-group text" transform="translate(0, -18)"></g><g class="label-group text" transform="translate(-56.4375, -18)"><g class="label" style="font-weight: bolder" transform="translate(0,-12)"><foreignObject width="112.875" height="24"><div xmlns="http://www.w3.org/1999/xhtml" style="display: table-cell; white-space: nowrap; line-height: 1.5; max-width: 157px; text-align: center;"><span class="nodeLabel markdown-node-label" style=""><p>ValidationError</p></span></div></foreignObject></g></g><g class="members-group text" transform="translate(-56.4375, 30)"></g><g class="methods-group text" transform="translate(-56.4375, 60)"></g><g class="divider" style=""><path d="M-68.4375 6 C-25.36203635680029 6.000314706583695, 17.713427286399423 6.000629413167389, 68.4375 6.001 M-68.4375 6 C-18.64589105862008 6.000363774311901, 31.14571788275984 6.000727548623801, 68.4375 6.001" stroke="#ccc" stroke-width="1.3" fill="none" stroke-dasharray="0 0" style=""></path></g><g class="divider" style=""><path d="M-68.4375 24 C-40.875180190317515 24.000201368546556, -13.31286038063503 24.00040273709311, 68.4375 24.001 M-68.4375 24 C-18.273426775072565 24.000366495512147, 31.89064644985487 24.000732991024293, 68.4375 24.001" stroke="#ccc" stroke-width="1.3" fill="none" stroke-dasharray="0 0" style=""></path></g></g><g class="node default " id="mermaid-74e093c0-12f2-417f-adbf-21a2891b81b6-classId-BusinessRuleError-14" data-look="classic" transform="translate(274.3125, 184)"><g class="basic label-container outer-path"><path d="M-79.4375 -42 L79.4375 -42 L79.4375 42 L-79.4375 42" stroke="none" stroke-width="0" fill="#1f2020" style=""></path><path d="M-79.4375 -42 C-20.591658623980038 -42, 38.254182752039924 -42, 79.4375 -42 M-79.4375 -42 C-28.77917692311714 -42, 21.879146153765717 -42, 79.4375 -42 M79.4375 -42 C79.4375 -16.64010223040012, 79.4375 8.719795539199758, 79.4375 42 M79.4375 -42 C79.4375 -11.966749708717401, 79.4375 18.066500582565197, 79.4375 42 M79.4375 42 C40.05271152069092 42, 0.6679230413818402 42, -79.4375 42 M79.4375 42 C20.19780990632635 42, -39.0418801873473 42, -79.4375 42 M-79.4375 42 C-79.4375 23.19581256066948, -79.4375 4.391625121338961, -79.4375 -42 M-79.4375 42 C-79.4375 17.693762561308937, -79.4375 -6.612474877382127, -79.4375 -42" stroke="#ccc" stroke-width="1.3" fill="none" stroke-dasharray="0 0" style=""></path></g><g class="annotation-group text" transform="translate(0, -18)"></g><g class="label-group text" transform="translate(-67.4375, -18)"><g class="label" style="font-weight: bolder" transform="translate(0,-12)"><foreignObject width="134.875" height="24"><div xmlns="http://www.w3.org/1999/xhtml" style="display: table-cell; white-space: nowrap; line-height: 1.5; max-width: 181px; text-align: center;"><span class="nodeLabel markdown-node-label" style=""><p>BusinessRuleError</p></span></div></foreignObject></g></g><g class="members-group text" transform="translate(-67.4375, 30)"></g><g class="methods-group text" transform="translate(-67.4375, 60)"></g><g class="divider" style=""><path d="M-79.4375 6 C-47.047049181127164 6.000203873805312, -14.656598362254329 6.000407747610623, 79.4375 6.001 M-79.4375 6 C-38.869469145249795 6.000255345591532, 1.6985617095004102 6.000510691183066, 79.4375 6.001" stroke="#ccc" stroke-width="1.3" fill="none" stroke-dasharray="0 0" style=""></path></g><g class="divider" style=""><path d="M-79.4375 24 C-40.464363222012864 24.000245306919137, -1.4912264440257275 24.000490613838277, 79.4375 24.001 M-79.4375 24 C-31.465282723405778 24.00030194943998, 16.506934553188444 24.00060389887996, 79.4375 24.001" stroke="#ccc" stroke-width="1.3" fill="none" stroke-dasharray="0 0" style=""></path></g></g><g class="node default " id="mermaid-74e093c0-12f2-417f-adbf-21a2891b81b6-classId-NotFoundError-15" data-look="classic" transform="translate(471.0390625, 184)"><g class="basic label-container outer-path"><path d="M-67.2890625 -42 L67.2890625 -42 L67.2890625 42 L-67.2890625 42" stroke="none" stroke-width="0" fill="#1f2020" style=""></path><path d="M-67.2890625 -42 C-35.305689563530045 -42, -3.32231662706009 -42, 67.2890625 -42 M-67.2890625 -42 C-23.26641928745903 -42, 20.75622392508194 -42, 67.2890625 -42 M67.2890625 -42 C67.2890625 -11.73052287606961, 67.2890625 18.53895424786078, 67.2890625 42 M67.2890625 -42 C67.2890625 -11.480123444803816, 67.2890625 19.03975311039237, 67.2890625 42 M67.2890625 42 C27.029687468835796 42, -13.229687562328408 42, -67.2890625 42 M67.2890625 42 C21.921628866058484 42, -23.445804767883033 42, -67.2890625 42 M-67.2890625 42 C-67.2890625 16.02378194556119, -67.2890625 -9.95243610887762, -67.2890625 -42 M-67.2890625 42 C-67.2890625 14.273526435484602, -67.2890625 -13.452947129030797, -67.2890625 -42" stroke="#ccc" stroke-width="1.3" fill="none" stroke-dasharray="0 0" style=""></path></g><g class="annotation-group text" transform="translate(0, -18)"></g><g class="label-group text" transform="translate(-55.2890625, -18)"><g class="label" style="font-weight: bolder" transform="translate(0,-12)"><foreignObject width="110.578125" height="24"><div xmlns="http://www.w3.org/1999/xhtml" style="display: table-cell; white-space: nowrap; line-height: 1.5; max-width: 155px; text-align: center;"><span class="nodeLabel markdown-node-label" style=""><p>NotFoundError</p></span></div></foreignObject></g></g><g class="members-group text" transform="translate(-55.2890625, 30)"></g><g class="methods-group text" transform="translate(-55.2890625, 60)"></g><g class="divider" style=""><path d="M-67.2890625 6 C-33.096628242449555 6.0002540712634955, 1.0958060151008908 6.00050814252699, 67.2890625 6.001 M-67.2890625 6 C-18.865898318334487 6.000359814525441, 29.557265863331025 6.000719629050883, 67.2890625 6.001" stroke="#ccc" stroke-width="1.3" fill="none" stroke-dasharray="0 0" style=""></path></g><g class="divider" style=""><path d="M-67.2890625 24 C-39.126284597267066 24.00020926712943, -10.963506694534132 24.00041853425886, 67.2890625 24.001 M-67.2890625 24 C-33.18562685440893 24.000253409947906, 0.9178087911821393 24.000506819895815, 67.2890625 24.001" stroke="#ccc" stroke-width="1.3" fill="none" stroke-dasharray="0 0" style=""></path></g></g><g class="node default " id="mermaid-74e093c0-12f2-417f-adbf-21a2891b81b6-classId-ConflictError-16" data-look="classic" transform="translate(648.7734375, 184)"><g class="basic label-container outer-path"><path d="M-60.4453125 -42 L60.4453125 -42 L60.4453125 42 L-60.4453125 42" stroke="none" stroke-width="0" fill="#1f2020" style=""></path><path d="M-60.4453125 -42 C-16.580527387384933 -42, 27.284257725230134 -42, 60.4453125 -42 M-60.4453125 -42 C-26.101457428228024 -42, 8.242397643543953 -42, 60.4453125 -42 M60.4453125 -42 C60.4453125 -16.24301000978376, 60.4453125 9.513979980432481, 60.4453125 42 M60.4453125 -42 C60.4453125 -9.733999120698385, 60.4453125 22.53200175860323, 60.4453125 42 M60.4453125 42 C24.606566914045146 42, -11.232178671909708 42, -60.4453125 42 M60.4453125 42 C29.23090151558779 42, -1.9835094688244226 42, -60.4453125 42 M-60.4453125 42 C-60.4453125 11.99412442838726, -60.4453125 -18.01175114322548, -60.4453125 -42 M-60.4453125 42 C-60.4453125 21.770084496749067, -60.4453125 1.5401689934981349, -60.4453125 -42" stroke="#ccc" stroke-width="1.3" fill="none" stroke-dasharray="0 0" style=""></path></g><g class="annotation-group text" transform="translate(0, -18)"></g><g class="label-group text" transform="translate(-48.4453125, -18)"><g class="label" style="font-weight: bolder" transform="translate(0,-12)"><foreignObject width="96.890625" height="24"><div xmlns="http://www.w3.org/1999/xhtml" style="display: table-cell; white-space: nowrap; line-height: 1.5; max-width: 140px; text-align: center;"><span class="nodeLabel markdown-node-label" style=""><p>ConflictError</p></span></div></foreignObject></g></g><g class="members-group text" transform="translate(-48.4453125, 30)"></g><g class="methods-group text" transform="translate(-48.4453125, 60)"></g><g class="divider" style=""><path d="M-60.4453125 6 C-20.109830451592934 6.000333652688522, 20.22565159681413 6.000667305377045, 60.4453125 6.001 M-60.4453125 6 C-19.069439547921434 6.000342258739684, 22.306433404157133 6.0006845174793675, 60.4453125 6.001" stroke="#ccc" stroke-width="1.3" fill="none" stroke-dasharray="0 0" style=""></path></g><g class="divider" style=""><path d="M-60.4453125 24 C-32.0370834114826 24.000234991167336, -3.6288543229652035 24.000469982334668, 60.4453125 24.001 M-60.4453125 24 C-21.184892856955123 24.00032475983678, 18.075526786089753 24.00064951967356, 60.4453125 24.001" stroke="#ccc" stroke-width="1.3" fill="none" stroke-dasharray="0 0" style=""></path></g></g><g class="node default " id="mermaid-74e093c0-12f2-417f-adbf-21a2891b81b6-classId-AuthError-17" data-look="classic" transform="translate(808.2578125, 184)"><g class="basic label-container outer-path"><path d="M-49.0390625 -42 L49.0390625 -42 L49.0390625 42 L-49.0390625 42" stroke="none" stroke-width="0" fill="#1f2020" style=""></path><path d="M-49.0390625 -42 C-12.156419359452258 -42, 24.726223781095484 -42, 49.0390625 -42 M-49.0390625 -42 C-20.756644296038576 -42, 7.525773907922847 -42, 49.0390625 -42 M49.0390625 -42 C49.0390625 -17.877201254975795, 49.0390625 6.245597490048411, 49.0390625 42 M49.0390625 -42 C49.0390625 -15.677604941926056, 49.0390625 10.644790116147888, 49.0390625 42 M49.0390625 42 C29.018370603015708 42, 8.997678706031415 42, -49.0390625 42 M49.0390625 42 C18.885227694798807 42, -11.268607110402385 42, -49.0390625 42 M-49.0390625 42 C-49.0390625 10.885252271718993, -49.0390625 -20.229495456562013, -49.0390625 -42 M-49.0390625 42 C-49.0390625 14.19826736014327, -49.0390625 -13.603465279713461, -49.0390625 -42" stroke="#ccc" stroke-width="1.3" fill="none" stroke-dasharray="0 0" style=""></path></g><g class="annotation-group text" transform="translate(0, -18)"></g><g class="label-group text" transform="translate(-37.0390625, -18)"><g class="label" style="font-weight: bolder" transform="translate(0,-12)"><foreignObject width="74.078125" height="24"><div xmlns="http://www.w3.org/1999/xhtml" style="display: table-cell; white-space: nowrap; line-height: 1.5; max-width: 119px; text-align: center;"><span class="nodeLabel markdown-node-label" style=""><p>AuthError</p></span></div></foreignObject></g></g><g class="members-group text" transform="translate(-37.0390625, 30)"></g><g class="methods-group text" transform="translate(-37.0390625, 60)"></g><g class="divider" style=""><path d="M-49.0390625 6 C-24.702973037620293 6.000248129636067, -0.36688357524058546 6.0004962592721345, 49.0390625 6.001 M-49.0390625 6 C-16.638478398124377 6.000330354848259, 15.762105703751246 6.000660709696517, 49.0390625 6.001" stroke="#ccc" stroke-width="1.3" fill="none" stroke-dasharray="0 0" style=""></path></g><g class="divider" style=""><path d="M-49.0390625 24 C-21.163862559387994 24.000284214241866, 6.711337381224013 24.000568428483735, 49.0390625 24.001 M-49.0390625 24 C-28.106072729375335 24.00021343178992, -7.173082958750669 24.00042686357984, 49.0390625 24.001" stroke="#ccc" stroke-width="1.3" fill="none" stroke-dasharray="0 0" style=""></path></g></g><g class="node default " id="mermaid-74e093c0-12f2-417f-adbf-21a2891b81b6-classId-InfrastructureError-18" data-look="classic" transform="translate(955.1015625, 50)"><g class="basic label-container outer-path"><path d="M-83.4375 -42 L83.4375 -42 L83.4375 42 L-83.4375 42" stroke="none" stroke-width="0" fill="#1f2020" style=""></path><path d="M-83.4375 -42 C-46.21009900056441 -42, -8.982698001128824 -42, 83.4375 -42 M-83.4375 -42 C-33.92601386312798 -42, 15.585472273744045 -42, 83.4375 -42 M83.4375 -42 C83.4375 -23.905845267715495, 83.4375 -5.811690535430991, 83.4375 42 M83.4375 -42 C83.4375 -21.004531406796975, 83.4375 -0.00906281359394967, 83.4375 42 M83.4375 42 C33.531906331049676 42, -16.37368733790065 42, -83.4375 42 M83.4375 42 C25.608624615478277 42, -32.220250769043446 42, -83.4375 42 M-83.4375 42 C-83.4375 18.867616860300313, -83.4375 -4.264766279399375, -83.4375 -42 M-83.4375 42 C-83.4375 25.150988444262957, -83.4375 8.301976888525914, -83.4375 -42" stroke="#ccc" stroke-width="1.3" fill="none" stroke-dasharray="0 0" style=""></path></g><g class="annotation-group text" transform="translate(0, -18)"></g><g class="label-group text" transform="translate(-71.4375, -18)"><g class="label" style="font-weight: bolder" transform="translate(0,-12)"><foreignObject width="142.875" height="24"><div xmlns="http://www.w3.org/1999/xhtml" style="display: table-cell; white-space: nowrap; line-height: 1.5; max-width: 181px; text-align: center;"><span class="nodeLabel markdown-node-label" style=""><p>InfrastructureError</p></span></div></foreignObject></g></g><g class="members-group text" transform="translate(-71.4375, 30)"></g><g class="methods-group text" transform="translate(-71.4375, 60)"></g><g class="divider" style=""><path d="M-83.4375 6 C-31.140832094835936 6.000313388272091, 21.155835810328128 6.000626776544182, 83.4375 6.001 M-83.4375 6 C-27.570556878598943 6.0003347831797536, 28.296386242802114 6.000669566359508, 83.4375 6.001" stroke="#ccc" stroke-width="1.3" fill="none" stroke-dasharray="0 0" style=""></path></g><g class="divider" style=""><path d="M-83.4375 24 C-49.30840608047072 24.000204518914874, -15.179312160941436 24.000409037829748, 83.4375 24.001 M-83.4375 24 C-26.273579893469673 24.00034255532648, 30.890340213060654 24.000685110652963, 83.4375 24.001" stroke="#ccc" stroke-width="1.3" fill="none" stroke-dasharray="0 0" style=""></path></g></g><g class="node default " id="mermaid-74e093c0-12f2-417f-adbf-21a2891b81b6-classId-HttpError-19" data-look="classic" transform="translate(955.1015625, 184)"><g class="basic label-container outer-path"><path d="M-47.8046875 -42 L47.8046875 -42 L47.8046875 42 L-47.8046875 42" stroke="none" stroke-width="0" fill="#1f2020" style=""></path><path d="M-47.8046875 -42 C-24.37291416270907 -42, -0.9411408254181381 -42, 47.8046875 -42 M-47.8046875 -42 C-28.049152856221827 -42, -8.293618212443654 -42, 47.8046875 -42 M47.8046875 -42 C47.8046875 -21.56970949781365, 47.8046875 -1.1394189956273024, 47.8046875 42 M47.8046875 -42 C47.8046875 -24.337582903781932, 47.8046875 -6.6751658075638645, 47.8046875 42 M47.8046875 42 C27.991424428686006 42, 8.178161357372012 42, -47.8046875 42 M47.8046875 42 C15.403124903016604 42, -16.998437693966792 42, -47.8046875 42 M-47.8046875 42 C-47.8046875 16.17337649119732, -47.8046875 -9.65324701760536, -47.8046875 -42 M-47.8046875 42 C-47.8046875 10.733423248013796, -47.8046875 -20.533153503972407, -47.8046875 -42" stroke="#ccc" stroke-width="1.3" fill="none" stroke-dasharray="0 0" style=""></path></g><g class="annotation-group text" transform="translate(0, -18)"></g><g class="label-group text" transform="translate(-35.8046875, -18)"><g class="label" style="font-weight: bolder" transform="translate(0,-12)"><foreignObject width="71.609375" height="24"><div xmlns="http://www.w3.org/1999/xhtml" style="display: table-cell; white-space: nowrap; line-height: 1.5; max-width: 116px; text-align: center;"><span class="nodeLabel markdown-node-label" style=""><p>HttpError</p></span></div></foreignObject></g></g><g class="members-group text" transform="translate(-35.8046875, 30)"></g><g class="methods-group text" transform="translate(-35.8046875, 60)"></g><g class="divider" style=""><path d="M-47.8046875 6 C-13.658554772171385 6.000357142097497, 20.48757795565723 6.000714284194993, 47.8046875 6.001 M-47.8046875 6 C-20.993002101488234 6.000280429459962, 5.818683297023533 6.000560858919923, 47.8046875 6.001" stroke="#ccc" stroke-width="1.3" fill="none" stroke-dasharray="0 0" style=""></path></g><g class="divider" style=""><path d="M-47.8046875 24 C-23.917373740293982 24.000249842797945, -0.03005998058796422 24.00049968559589, 47.8046875 24.001 M-47.8046875 24 C-16.94199922671913 24.00032279981198, 13.92068904656174 24.000645599623954, 47.8046875 24.001" stroke="#ccc" stroke-width="1.3" fill="none" stroke-dasharray="0 0" style=""></path></g></g></g></g></g><defs><filter id="mermaid-74e093c0-12f2-417f-adbf-21a2891b81b6-drop-shadow" height="130%" width="130%"><feDropShadow dx="4" dy="4" stdDeviation="0" flood-opacity="0.06" flood-color="#FFFFFF"></feDropShadow></filter></defs><defs><filter id="mermaid-74e093c0-12f2-417f-adbf-21a2891b81b6-drop-shadow-small" height="150%" width="150%"><feDropShadow dx="2" dy="2" stdDeviation="0" flood-opacity="0.06" flood-color="#FFFFFF"></feDropShadow></filter></defs><linearGradient id="mermaid-74e093c0-12f2-417f-adbf-21a2891b81b6-gradient" gradientUnits="objectBoundingBox" x1="0%" y1="0%" x2="100%" y2="0%"><stop offset="0%" stop-color="#cccccc" stop-opacity="1"></stop><stop offset="100%" stop-color="hsl(180, 0%, 18.3529411765%)" stop-opacity="1"></stop></linearGradient></svg>